:SAMPLES-PER-SECOND 30
:FULLY-SPECIFIED
:DEGREES
459
root  -60.3683 40.9877 -26.5407 -2.50188 1.61151 0.295883
RightUpLeg  -4.52375 -10.7051 -5.42197
RightLeg  12.5733 -5.98768 2.27824
RightFoot  -3.61384 0.0152987 -0.60495
RightToes  0.00048216 0.542163 -0.142577
Spine  19.064 1.29884 11.0048
Spine1  11.6447 5.52972 -7.45592
HEad  -26.5848 -15.5857 6.88455
LeftShoulder1  8.10994 -12.8706 -43.0666
LeftArm  -7.84873 19.6133 -29.7531
LeftForeArm  39.7958 -34.6049 -5.43768
LeftHand  -0.25398 0.0180481 5.50724
RightShoulder  3.99266 8.3607 27.6343
RightArm  -8.5279 39.7108 43.7612
RightForeArm  159.327 66.499 156.29
RightHand  -2.89276 7.77524 -25.5193
LeftUpLeg  -5.68123 9.14366 2.55289
LeftLeg  12.09 6.70744 0.71129
LeftFoot  -3.32723 0.0534101 -0.343654
LeftToes  1.06247e-005 4.65855e-005 -8.18501e-006
460
root  -60.3298 41.0468 -26.207 -2.87106 1.16209 0.279602
RightUpLeg  -3.2171 -10.2839 -5.57755
RightLeg  11.7359 -5.92415 2.40846
RightFoot  -3.63684 0.00899768 -0.514114
RightToes  0.00048216 0.542163 -0.142577
Spine  16.9899 1.66526 10.3064
Spine1  11.9049 5.65466 -7.52471
HEad  -26.3237 -15.3959 7.0187
LeftShoulder1  8.09816 -12.8995 -42.9197
LeftArm  -8.34492 19.6446 -29.6072
LeftForeArm  39.5735 -35.4528 -5.66277
LeftHand  -0.25398 0.0180481 5.50724
RightShoulder  3.71052 7.86617 26.5806
RightArm  -8.49747 41.5432 45.077
RightForeArm  161.531 65.0257 158.016
RightHand  -2.84611 7.61384 -25.4216
LeftUpLeg  -4.16694 9.04996 2.95531
LeftLeg  11.1602 7.2797 0.240347
LeftFoot  -3.23039 0.0545416 -0.344559
LeftToes  1.06247e-005 4.65855e-005 -8.18501e-006
461
root  -60.2819 41.0936 -25.895 -3.20697 0.949402 0.303375
RightUpLeg  -2.06711 -9.81834 -5.71586
RightLeg  11.0955 -6.06329 2.31171
RightFoot  -3.72594 -0.00805327 -0.255199
RightToes  0.00048216 0.542163 -0.142577
Spine  15.0161 1.92889 9.37302
Spine1  12.2633 5.51344 -7.02411
HEad  -26.2507 -15.0702 6.80726
LeftShoulder1  8.1234 -12.8394 -43.2299
LeftArm  -8.56935 19.5078 -29.2628
LeftForeArm  40.0109 -36.4897 -5.90491
LeftHand  -0.25398 0.0180481 5.50724
RightShoulder  3.43056 7.45203 25.2023
RightArm  -8.40984 43.3951 46.6763
RightForeArm  163.746 63.7583 159.391
RightHand  -2.76161 7.35512 -25.1752
LeftUpLeg  -2.80625 8.67602 3.20522
LeftLeg  10.3049 7.85922 -0.178791
LeftFoot  -3.17396 0.0540784 -0.321427
LeftToes  1.06247e-005 4.65855e-005 -8.18501e-006
462
root  -60.2276 41.1239 -25.6019 -3.58626 0.924683 0.399811
RightUpLeg  -1.01918 -9.73268 -5.9977
RightLeg  10.7784 -5.96943 2.26037
RightFoot  -3.89152 -0.0094661 -0.240353
RightToes  0.00048216 0.542163 -0.142577
Spine  13.3404 2.02759 8.44354
Spine1  12.5108 5.24773 -6.53436
HEad  -26.2496 -14.8057 6.62456
LeftShoulder1  8.08818 -12.7192 -43.3676
LeftArm  -8.76543 19.3441 -29.0599
LeftForeArm  40.564 -37.4422 -6.1247
LeftHand  -0.25398 0.0180481 5.50724
RightShoulder  3.18859 7.10502 23.8893
RightArm  -8.32157 45.1669 48.2248
RightForeArm  165.177 62.6975 160.409
RightHand  -2.64164 6.92991 -24.9192
LeftUpLeg  -1.56665 8.13223 3.23242
LeftLeg  9.63609 8.42346 -0.430413
LeftFoot  -3.18575 0.0462176 -0.184076
LeftToes  1.06247e-005 4.65855e-005 -8.18501e-006
463
root  -60.169 41.1442 -25.3206 -3.90793 0.808685 0.513962
RightUpLeg  -0.147286 -9.93936 -6.34606
RightLeg  10.6586 -5.56459 2.31059
RightFoot  -4.08156 0.00208299 -0.426751
RightToes  0.00048216 0.542163 -0.142577
Spine  11.9047 2.0277 7.96602
Spine1  12.5237 5.18782 -6.85807
HEad  -26.2445 -14.6696 6.93764
LeftShoulder1  7.92231 -12.6018 -42.7536
LeftArm  -9.18389 19.342 -29.2084
LeftForeArm  40.7582 -38.1469 -6.30328
LeftHand  -0.25398 0.0180481 5.50724
RightShoulder  3.06163 6.88487 23.2681
RightArm  -8.48701 46.6586 49.088
RightForeArm  166.09 61.8301 161.166
RightHand  -2.57854 6.68692 -24.814
LeftUpLeg  -0.476952 7.61564 3.1713
LeftLeg  9.11157 9.03393 -0.595603
LeftFoot  -3.24419 0.0375946 -0.035618
LeftToes  1.06247e-005 4.65855e-005 -8.18501e-006
